<svg width="22" height="22" viewBox="0 0 22 22" fill="none" xmlns="http://www.w3.org/2000/svg">
<path d="M2.02092 11.125C2.02092 16.0152 5.98493 19.9792 10.8751 19.9792C15.7652 19.9792 19.7293 16.0152 19.7293 11.125C19.7293 6.23485 15.7652 2.27084 10.8751 2.27084C5.98493 2.27084 2.02092 6.23485 2.02092 11.125Z" stroke="#F8F8F8" stroke-width="1.875" stroke-linecap="round" stroke-linejoin="round"/>
<path d="M11.7604 2.31511C11.7604 2.31511 14.4167 5.8125 14.4167 11.125C14.4167 16.4375 11.7604 19.9349 11.7604 19.9349M9.9896 19.9349C9.9896 19.9349 7.33335 16.4375 7.33335 11.125C7.33335 5.8125 9.9896 2.31511 9.9896 2.31511M2.57866 14.224H19.1714M2.57866 8.02605H19.1714" stroke="#F8F8F8" stroke-width="1.875" stroke-linecap="round" stroke-linejoin="round"/>
</svg>
