<svg width="65" height="19" viewBox="0 0 65 19" fill="none" xmlns="http://www.w3.org/2000/svg">
<path d="M9.72803 5.05379C9.72803 5.74672 9.56098 6.39634 9.22689 7.00265C8.90518 7.60897 8.39167 8.09773 7.68636 8.46894C6.99343 8.84015 6.1149 9.02576 5.05076 9.02576H2.87917V14H0.280682V1.0447H5.05076C6.05303 1.0447 6.90682 1.21793 7.61212 1.56439C8.31742 1.91086 8.84331 2.38725 9.18977 2.99356C9.54861 3.59987 9.72803 4.28662 9.72803 5.05379ZM4.93939 6.92841C5.65707 6.92841 6.18914 6.76755 6.53561 6.44583C6.88207 6.11174 7.0553 5.64773 7.0553 5.05379C7.0553 3.79167 6.35 3.16061 4.93939 3.16061H2.87917V6.92841H4.93939ZM14.1714 0.265153V14H11.5729V0.265153H14.1714ZM16.0705 8.82159C16.0705 7.7822 16.2747 6.86035 16.683 6.05606C17.1037 5.25177 17.6667 4.63308 18.3721 4.2C19.0897 3.76692 19.8878 3.55038 20.7664 3.55038C21.5335 3.55038 22.2017 3.70505 22.7709 4.01439C23.3525 4.32374 23.8165 4.71351 24.163 5.18371V3.71742H26.78V14H24.163V12.4966C23.8289 12.9792 23.3649 13.3813 22.7709 13.703C22.1893 14.0124 21.515 14.167 20.7478 14.167C19.8816 14.167 19.0897 13.9443 18.3721 13.4989C17.6667 13.0534 17.1037 12.4285 16.683 11.6242C16.2747 10.8076 16.0705 9.87336 16.0705 8.82159ZM24.163 8.85871C24.163 8.22765 24.0392 7.68939 23.7917 7.24394C23.5443 6.78611 23.2102 6.43965 22.7895 6.20455C22.3688 5.95707 21.9171 5.83333 21.4346 5.83333C20.952 5.83333 20.5065 5.95088 20.0982 6.18599C19.6899 6.42109 19.3558 6.76755 19.0959 7.22538C18.8484 7.67083 18.7247 8.2029 18.7247 8.82159C18.7247 9.44028 18.8484 9.98472 19.0959 10.4549C19.3558 10.9128 19.6899 11.2654 20.0982 11.5129C20.5189 11.7604 20.9643 11.8841 21.4346 11.8841C21.9171 11.8841 22.3688 11.7665 22.7895 11.5314C23.2102 11.284 23.5443 10.9375 23.7917 10.492C24.0392 10.0342 24.163 9.48977 24.163 8.85871ZM39.155 3.71742L32.7887 18.8629H30.0232L32.2505 13.7402L28.13 3.71742H31.044L33.6982 10.9004L36.3895 3.71742H39.155ZM46.5694 14.1299C45.3568 14.1299 44.2431 13.8453 43.2285 13.2761C42.2138 12.7069 41.4095 11.9212 40.8156 10.9189C40.2217 9.90429 39.9247 8.75972 39.9247 7.48523C39.9247 6.22311 40.2217 5.09091 40.8156 4.08864C41.4095 3.07399 42.2138 2.28207 43.2285 1.71288C44.2431 1.14369 45.3568 0.859092 46.5694 0.859092C47.7944 0.859092 48.908 1.14369 49.9103 1.71288C50.9249 2.28207 51.723 3.07399 52.3046 4.08864C52.8985 5.09091 53.1955 6.22311 53.1955 7.48523C53.1955 8.75972 52.8985 9.90429 52.3046 10.9189C51.723 11.9212 50.9249 12.7069 49.9103 13.2761C48.8956 13.8453 47.782 14.1299 46.5694 14.1299ZM46.5694 11.8098C47.3489 11.8098 48.0357 11.6366 48.6296 11.2902C49.2235 10.9313 49.6876 10.424 50.0217 9.76818C50.3557 9.11237 50.5228 8.35139 50.5228 7.48523C50.5228 6.61907 50.3557 5.86427 50.0217 5.22083C49.6876 4.56503 49.2235 4.06389 48.6296 3.71742C48.0357 3.37096 47.3489 3.19773 46.5694 3.19773C45.7898 3.19773 45.0969 3.37096 44.4906 3.71742C43.8967 4.06389 43.4326 4.56503 43.0985 5.22083C42.7645 5.86427 42.5974 6.61907 42.5974 7.48523C42.5974 8.35139 42.7645 9.11237 43.0985 9.76818C43.4326 10.424 43.8967 10.9313 44.4906 11.2902C45.0969 11.6366 45.7898 11.8098 46.5694 11.8098ZM60.8268 3.56894C62.0518 3.56894 63.0417 3.95871 63.7965 4.73826C64.5513 5.50543 64.9287 6.58195 64.9287 7.9678V14H62.3302V8.32045C62.3302 7.50379 62.1261 6.87891 61.7177 6.44583C61.3094 6.00038 60.7526 5.77765 60.0473 5.77765C59.3296 5.77765 58.7604 6.00038 58.3397 6.44583C57.9314 6.87891 57.7272 7.50379 57.7272 8.32045V14H55.1287V3.71742H57.7272V4.99811C58.0737 4.55265 58.5129 4.20619 59.045 3.95871C59.5894 3.69886 60.1834 3.56894 60.8268 3.56894Z" fill="url(#paint0_radial_231_752)"/>
<defs>
<radialGradient id="paint0_radial_231_752" cx="0" cy="0" r="1" gradientUnits="userSpaceOnUse" gradientTransform="translate(58.5 8) rotate(165.889) scale(43.8224 97.3445)">
<stop stop-color="#FF2C78"/>
<stop offset="1" stop-color="#DCA4FF"/>
</radialGradient>
</defs>
</svg>
